<svg xmlns="http://www.w3.org/2000/svg" viewBox="0 0 920 760" role="img" aria-labelledby="title desc">
  <title>CNJP ? do conflito ao acordo</title>
  <desc>Ilustra??o conceitual mostrando duas partes convergindo para um documento de acordo.</desc>
  <defs>
    <linearGradient id="bg" x1="0" y1="0" x2="1" y2="1">
      <stop offset="0%" stop-color="#07110e"/>
      <stop offset="55%" stop-color="#0f221b"/>
      <stop offset="100%" stop-color="#06100d"/>
    </linearGradient>
    <linearGradient id="panel" x1="0" y1="0" x2="1" y2="1">
      <stop offset="0%" stop-color="#143126"/>
      <stop offset="100%" stop-color="#091712"/>
    </linearGradient>
    <linearGradient id="paper" x1="0" y1="0" x2="1" y2="1">
      <stop offset="0%" stop-color="#fbf6e9"/>
      <stop offset="100%" stop-color="#d8decf"/>
    </linearGradient>
    <filter id="shadow" x="-20%" y="-20%" width="140%" height="140%">
      <feDropShadow dx="0" dy="22" stdDeviation="18" flood-color="#000" flood-opacity=".45"/>
    </filter>
    <filter id="glow" x="-30%" y="-30%" width="160%" height="160%">
      <feGaussianBlur stdDeviation="12" result="blur"/>
      <feColorMatrix in="blur" type="matrix" values="1 0 0 0 0.47 0 1 0 0 0.75 0 0 1 0 0.33 0 0 0 .9 0"/>
    </filter>
  </defs>
  <rect width="920" height="760" rx="36" fill="url(#bg)"/>
  <circle cx="164" cy="194" r="126" fill="#274d3c" opacity=".24" filter="url(#glow)"/>
  <circle cx="758" cy="160" r="110" fill="#355a45" opacity=".18" filter="url(#glow)"/>
  <path d="M114 482 C200 398 278 395 362 468 C414 514 461 536 512 522 C598 498 652 404 806 320" fill="none" stroke="#c9f18a" stroke-width="2.4" stroke-linecap="round" stroke-dasharray="1 16" opacity=".48"/>
  <rect x="82" y="238" width="288" height="202" rx="28" fill="url(#panel)" stroke="#6aa376" stroke-opacity=".18"/>
  <rect x="550" y="188" width="288" height="202" rx="28" fill="url(#panel)" stroke="#6aa376" stroke-opacity=".18"/>
  <g opacity=".9">
    <text x="128" y="284" fill="#b7c6bc" font-family="Inter, Arial, sans-serif" font-size="18" font-weight="700" letter-spacing=".22em">CONFLITO</text>
    <text x="636" y="254" fill="#b7c6bc" font-family="Inter, Arial, sans-serif" font-size="18" font-weight="700" letter-spacing=".22em">DI?LOGO</text>
  </g>
  <path d="M396 402 C429 350 463 325 462 287 C461 249 432 223 394 219" fill="none" stroke="#bfe985" stroke-width="3" stroke-linecap="round" opacity=".8"/>
  <path d="M516 402 C485 350 452 325 454 287 C456 249 486 223 523 219" fill="none" stroke="#bfe985" stroke-width="3" stroke-linecap="round" opacity=".8"/>
  <g filter="url(#shadow)">
    <g transform="translate(352 96) rotate(5 110 196)">
      <rect x="0" y="0" width="220" height="392" rx="8" fill="url(#paper)"/>
      <rect x="22" y="38" width="176" height="2" fill="#7f8d88" opacity=".55"/>
      <rect x="22" y="66" width="142" height="5" rx="2.5" fill="#b0b9b3"/>
      <rect x="22" y="90" width="120" height="5" rx="2.5" fill="#b0b9b3"/>
      <rect x="22" y="114" width="84" height="5" rx="2.5" fill="#b0b9b3"/>
      <text x="22" y="230" fill="#2a3a33" font-family="Georgia, serif" font-size="28" font-style="italic">Acordo poss?vel</text>
      <rect x="22" y="248" width="176" height="2" fill="#9ca69d" opacity=".7"/>
      <circle cx="180" cy="330" r="24" fill="none" stroke="#6b8d70" stroke-width="3"/>
      <path d="M173 330 l5 6 10 -12" fill="none" stroke="#6b8d70" stroke-width="3.2" stroke-linecap="round" stroke-linejoin="round"/>
      <text x="22" y="28" fill="#4d6b57" font-family="Inter, Arial, sans-serif" font-size="12" font-weight="700" letter-spacing=".18em">CNJP</text>
      <text x="164" y="28" fill="#4d6b57" font-family="Inter, Arial, sans-serif" font-size="12" font-weight="700" letter-spacing=".18em">TERMO</text>
    </g>
  </g>
  <circle cx="460" cy="330" r="40" fill="#bfe985" opacity=".18"/>
  <circle cx="460" cy="330" r="18" fill="#bfe985" opacity=".95"/>
  <circle cx="460" cy="330" r="9" fill="#07110e"/>
  <path d="M460 330 m-14 0 h28" stroke="#07110e" stroke-width="2.2" stroke-linecap="round"/>
  <path d="M460 330 m0 -14 v28" stroke="#07110e" stroke-width="2.2" stroke-linecap="round"/>
  <text x="460" y="604" text-anchor="middle" fill="#d4e1d8" font-family="Inter, Arial, sans-serif" font-size="14" font-weight="700" letter-spacing=".28em">DO CONFLITO AO ACORDO</text>
</svg>
